<?xml version="1.0" encoding="UTF-8" standalone="no"?>
<svg
   viewBox="0 0 32 32"
   version="1.1"
   id="svg1"
   sodipodi:docname="media-playlist-shuffle-active.svg"
   inkscape:version="1.3.2 (091e20ef0f, 2023-11-25, custom)"
   xmlns:inkscape="http://www.inkscape.org/namespaces/inkscape"
   xmlns:sodipodi="http://sodipodi.sourceforge.net/DTD/sodipodi-0.dtd"
   xmlns="http://www.w3.org/2000/svg"
   xmlns:svg="http://www.w3.org/2000/svg">
  <sodipodi:namedview
     id="namedview1"
     pagecolor="#ffffff"
     bordercolor="#000000"
     borderopacity="0.25"
     inkscape:showpageshadow="2"
     inkscape:pageopacity="0.0"
     inkscape:pagecheckerboard="0"
     inkscape:deskcolor="#d1d1d1"
     inkscape:zoom="23.8125"
     inkscape:cx="15.979003"
     inkscape:cy="16"
     inkscape:window-width="1920"
     inkscape:window-height="1008"
     inkscape:window-x="0"
     inkscape:window-y="0"
     inkscape:window-maximized="1"
     inkscape:current-layer="svg1" />
  <defs
     id="defs3051">
    <style
       type="text/css"
       id="current-color-scheme">.ColorScheme-Text { color: #fcfcfc; } </style>
  </defs>
  <path
     style="fill:#4281ff;fill-opacity:1;stroke:none"
     d="M 23.5,6.9999993 V 9.9999998 H 19 c -3.324,0 -5.5,2.6760002 -5.5,6.0000002 0,2.493 -2.474309,5 -5.0000002,5 H 4 v 1 H 8.4999998 C 11.824,22 14.5,19.324 14.5,16 c 0,-2.493 2.007,-5 4.5,-5 h 4.5 v 3 L 28,10.5 Z M 4,9.9999998 V 11 h 4.4999998 c 1.280419,0 2.5930102,0.632095 3.4109532,1.484879 0.143655,-0.516567 0.18248,-0.599627 0.450376,-1.049333 C 11.316857,10.552058 9.9813908,9.9999998 8.4999998,9.9999998 Z M 23.5,18 v 3 H 19 c -1.280419,0 -2.586238,-0.620961 -3.40418,-1.473746 -0.143655,0.516567 -0.189251,0.588493 -0.457148,1.038199 C 16.183143,21.447941 17.518609,22 19,22 h 4.5 v 3 L 28,21.5 Z"
     class="ColorScheme-Text"
     id="path1" />
</svg>
